<svg width="142" height="20" viewBox="0 0 142 20" fill="none" xmlns="http://www.w3.org/2000/svg">
<path d="M141.427 18.7298H128.764V0.257568H141.427V3.95458H132.461V7.6516H138.528V11.3486H132.461V15.0327H141.427V18.7298Z" fill="#415D00"/>
<path d="M115.251 3.95458V11.3486H118.948C119.455 11.3486 119.932 11.2541 120.378 11.0652C120.825 10.8677 121.216 10.6015 121.551 10.2666C121.885 9.93164 122.147 9.5409 122.336 9.09433C122.534 8.63918 122.633 8.15827 122.633 7.6516C122.633 7.14492 122.534 6.6683 122.336 6.22174C122.147 5.76659 121.885 5.37156 121.551 5.03664C121.216 4.70171 120.825 4.43979 120.378 4.25086C119.932 4.05334 119.455 3.95458 118.948 3.95458H115.251ZM115.251 18.7298H111.554V0.257568H118.948C119.627 0.257568 120.28 0.347739 120.906 0.528082C121.533 0.699836 122.117 0.94888 122.658 1.27521C123.208 1.59296 123.706 1.97941 124.153 2.43456C124.608 2.88112 124.994 3.37921 125.312 3.92882C125.638 4.47843 125.887 5.06669 126.059 5.6936C126.239 6.3205 126.33 6.97317 126.33 7.6516C126.33 8.28709 126.248 8.9054 126.085 9.50655C125.93 10.1077 125.703 10.6788 125.402 11.2198C125.11 11.7608 124.749 12.2589 124.32 12.7141C123.891 13.1692 123.41 13.5642 122.877 13.8992L124.926 18.7298H120.997L119.386 15.007L115.251 15.0327V18.7298Z" fill="#415D00"/>
<path d="M104.65 11.3486V7.6516C104.65 7.14492 104.551 6.6683 104.354 6.22174C104.165 5.76659 103.903 5.37156 103.568 5.03664C103.233 4.70171 102.838 4.43979 102.383 4.25086C101.936 4.05334 101.46 3.95458 100.953 3.95458C100.446 3.95458 99.9653 4.05334 99.5102 4.25086C99.0636 4.43979 98.6729 4.70171 98.338 5.03664C98.003 5.37156 97.7368 5.76659 97.5393 6.22174C97.3504 6.6683 97.2559 7.14492 97.2559 7.6516V11.3486H104.65ZM108.347 18.7298H104.65V15.0327H97.2559V18.7298H93.5718V7.6516C93.5718 6.62966 93.765 5.67213 94.1514 4.779C94.5379 3.87729 95.0617 3.09152 95.723 2.42167C96.3928 1.75183 97.1743 1.22369 98.0674 0.83724C98.9692 0.450792 99.931 0.257568 100.953 0.257568C101.975 0.257568 102.932 0.450792 103.826 0.83724C104.727 1.22369 105.513 1.75183 106.183 2.42167C106.853 3.09152 107.381 3.87729 107.767 4.779C108.154 5.67213 108.347 6.62966 108.347 7.6516V18.7298Z" fill="#415D00"/>
<path d="M91.6267 16.8362C90.768 17.5748 89.8061 18.1416 88.7413 18.5366C87.6764 18.9316 86.5729 19.1292 85.4307 19.1292C84.5547 19.1292 83.7089 19.0132 82.893 18.7813C82.0858 18.5581 81.3258 18.2403 80.613 17.8281C79.9088 17.4073 79.2647 16.9049 78.6807 16.321C78.0968 15.737 77.5944 15.0929 77.1736 14.3887C76.7614 13.6759 76.4393 12.9159 76.2075 12.1087C75.9842 11.2929 75.8726 10.447 75.8726 9.57102C75.8726 8.69507 75.9842 7.84918 76.2075 7.03334C76.4393 6.21751 76.7614 5.4575 77.1736 4.7533C77.5944 4.04052 78.0968 3.39215 78.6807 2.80819C79.2647 2.22422 79.9088 1.72613 80.613 1.31392C81.3258 0.893123 82.0858 0.571083 82.893 0.347803C83.7089 0.115934 84.5547 0 85.4307 0C86.5729 0 87.6764 0.197518 88.7413 0.592553C89.8061 0.979 90.768 1.54579 91.6267 2.29292L89.6687 5.51332C89.1277 4.92935 88.4879 4.48279 87.7494 4.17363C87.0108 3.85589 86.2379 3.69701 85.4307 3.69701C84.6149 3.69701 83.8506 3.85159 83.1378 4.16075C82.425 4.46991 81.8024 4.89071 81.2699 5.42315C80.7375 5.947 80.3167 6.56961 80.0075 7.29098C79.6984 8.00376 79.5438 8.76377 79.5438 9.57102C79.5438 10.3783 79.6984 11.1383 80.0075 11.8511C80.3167 12.5552 80.7375 13.1736 81.2699 13.706C81.8024 14.2384 82.425 14.6592 83.1378 14.9684C83.8506 15.2776 84.6149 15.4321 85.4307 15.4321C86.2379 15.4321 87.0108 15.2776 87.7494 14.9684C88.4879 14.6507 89.1277 14.1998 89.6687 13.6158L91.6267 16.8362Z" fill="#415D00"/>
<path d="M74.4167 9.49366C74.4167 10.3438 74.305 11.164 74.0817 11.954C73.867 12.7355 73.5579 13.4698 73.1543 14.1568C72.7506 14.8352 72.2697 15.4578 71.7115 16.0246C71.1533 16.5828 70.5307 17.0637 69.8437 17.4674C69.1567 17.871 68.4181 18.1844 67.6281 18.4077C66.8466 18.6224 66.0308 18.7298 65.1806 18.7298H59.6157V0.257568H65.1806C66.0308 0.257568 66.8466 0.369209 67.6281 0.59249C68.4181 0.807183 69.1567 1.11634 69.8437 1.51996C70.5307 1.92359 71.1533 2.40879 71.7115 2.97558C72.2697 3.53378 72.7506 4.15639 73.1543 4.84341C73.5579 5.52184 73.867 6.25609 74.0817 7.04616C74.305 7.82765 74.4167 8.64348 74.4167 9.49366ZM70.7196 9.49366C70.7196 8.72936 70.5737 8.01228 70.2817 7.34244C69.9983 6.6726 69.6032 6.08863 69.0966 5.59054C68.5985 5.08387 68.0102 4.68454 67.3318 4.39256C66.6619 4.10057 65.9449 3.95458 65.1806 3.95458H63.3385V15.0327H65.1806C65.9449 15.0327 66.6619 14.891 67.3318 14.6077C68.0102 14.3157 68.5985 13.9206 69.0966 13.4225C69.6032 12.9159 69.9983 12.3276 70.2817 11.6578C70.5737 10.9793 70.7196 10.258 70.7196 9.49366Z" fill="#415D00"/>
<path d="M57.1813 9.57089C57.1813 10.4468 57.0653 11.2927 56.8335 12.1086C56.6102 12.9158 56.2924 13.6758 55.8802 14.3886C55.468 15.0928 54.9699 15.7369 54.386 16.3208C53.802 16.9048 53.1579 17.4072 52.4537 17.828C51.7495 18.2402 50.9895 18.5579 50.1737 18.7812C49.3579 19.0131 48.512 19.129 47.636 19.129C46.7601 19.129 45.9142 19.0131 45.0983 18.7812C44.2911 18.5579 43.5311 18.2402 42.8183 17.828C42.1141 17.4072 41.47 16.9048 40.8861 16.3208C40.3021 15.7369 39.7997 15.0928 39.3789 14.3886C38.9667 13.6758 38.6447 12.9158 38.4128 12.1086C38.1895 11.2927 38.0779 10.4468 38.0779 9.57089C38.0779 8.69494 38.1895 7.84905 38.4128 7.03322C38.6447 6.21738 38.9667 5.45737 39.3789 4.75318C39.7997 4.04898 40.3021 3.4049 40.8861 2.82094C41.47 2.23697 42.1141 1.73889 42.8183 1.32667C43.5311 0.914464 44.2911 0.596718 45.0983 0.373438C45.9142 0.141569 46.7601 0.0256348 47.636 0.0256348C48.512 0.0256348 49.3579 0.141569 50.1737 0.373438C50.9895 0.596718 51.7495 0.914464 52.4537 1.32667C53.1579 1.73889 53.802 2.23697 54.386 2.82094C54.9699 3.4049 55.468 4.04898 55.8802 4.75318C56.2924 5.45737 56.6102 6.21738 56.8335 7.03322C57.0653 7.84905 57.1813 8.69494 57.1813 9.57089ZM53.51 9.57089C53.51 8.76364 53.3554 8.00363 53.0463 7.29085C52.7371 6.56948 52.3163 5.94687 51.7839 5.42302C51.26 4.89058 50.6374 4.46978 49.9161 4.16062C49.2033 3.85146 48.4433 3.69689 47.636 3.69689C46.8202 3.69689 46.0559 3.85146 45.3431 4.16062C44.6303 4.46978 44.0077 4.89058 43.4753 5.42302C42.9428 5.94687 42.522 6.56948 42.2129 7.29085C41.9037 8.00363 41.7491 8.76364 41.7491 9.57089C41.7491 10.3781 41.9037 11.1381 42.2129 11.8509C42.522 12.5551 42.9428 13.1734 43.4753 13.7059C44.0077 14.2383 44.6303 14.6591 45.3431 14.9683C46.0559 15.2774 46.8202 15.432 47.636 15.432C48.4433 15.432 49.2033 15.2774 49.9161 14.9683C50.6374 14.6591 51.26 14.2383 51.7839 13.7059C52.3163 13.1734 52.7371 12.5551 53.0463 11.8509C53.3554 11.1381 53.51 10.3781 53.51 9.57089Z" fill="#415D00"/>
<path d="M36.6481 9.57089C36.6481 10.4468 36.5321 11.2927 36.3003 12.1086C36.077 12.9158 35.7592 13.6758 35.347 14.3886C34.9348 15.0928 34.4367 15.7369 33.8528 16.3208C33.2688 16.9048 32.6247 17.4072 31.9205 17.828C31.2163 18.2402 30.4563 18.5579 29.6405 18.7812C28.8247 19.0131 27.9788 19.129 27.1028 19.129C26.2269 19.129 25.381 19.0131 24.5651 18.7812C23.7579 18.5579 22.9979 18.2402 22.2851 17.828C21.5809 17.4072 20.9368 16.9048 20.3529 16.3208C19.7689 15.7369 19.2665 15.0928 18.8457 14.3886C18.4335 13.6758 18.1115 12.9158 17.8796 12.1086C17.6563 11.2927 17.5447 10.4468 17.5447 9.57089C17.5447 8.69494 17.6563 7.84905 17.8796 7.03322C18.1115 6.21738 18.4335 5.45737 18.8457 4.75318C19.2665 4.04898 19.7689 3.4049 20.3529 2.82094C20.9368 2.23697 21.5809 1.73889 22.2851 1.32667C22.9979 0.914464 23.7579 0.596718 24.5651 0.373438C25.381 0.141569 26.2269 0.0256348 27.1028 0.0256348C27.9788 0.0256348 28.8247 0.141569 29.6405 0.373438C30.4563 0.596718 31.2163 0.914464 31.9205 1.32667C32.6247 1.73889 33.2688 2.23697 33.8528 2.82094C34.4367 3.4049 34.9348 4.04898 35.347 4.75318C35.7592 5.45737 36.077 6.21738 36.3003 7.03322C36.5321 7.84905 36.6481 8.69494 36.6481 9.57089ZM32.9768 9.57089C32.9768 8.76364 32.8222 8.00363 32.5131 7.29085C32.2039 6.56948 31.7831 5.94687 31.2507 5.42302C30.7268 4.89058 30.1042 4.46978 29.3829 4.16062C28.6701 3.85146 27.9101 3.69689 27.1028 3.69689C26.287 3.69689 25.5227 3.85146 24.8099 4.16062C24.0971 4.46978 23.4745 4.89058 22.9421 5.42302C22.4096 5.94687 21.9888 6.56948 21.6797 7.29085C21.3705 8.00363 21.2159 8.76364 21.2159 9.57089C21.2159 10.3781 21.3705 11.1381 21.6797 11.8509C21.9888 12.5551 22.4096 13.1734 22.9421 13.7059C23.4745 14.2383 24.0971 14.6591 24.8099 14.9683C25.5227 15.2774 26.287 15.432 27.1028 15.432C27.9101 15.432 28.6701 15.2774 29.3829 14.9683C30.1042 14.6591 30.7268 14.2383 31.2507 13.7059C31.7831 13.1734 32.2039 12.5551 32.5131 11.8509C32.8222 11.1381 32.9768 10.3781 32.9768 9.57089Z" fill="#415D00"/>
<path d="M15.7027 16.862C14.8439 17.5919 13.8863 18.1544 12.8301 18.5495C11.7738 18.9359 10.6745 19.1291 9.53237 19.1291C8.65642 19.1291 7.81053 19.0132 6.9947 18.7813C6.18745 18.5581 5.43173 18.2403 4.72754 17.8281C4.02335 17.4073 3.37927 16.9092 2.7953 16.3338C2.21134 15.7499 1.71325 15.1058 1.30104 14.4016C0.888829 13.6888 0.56679 12.9245 0.334921 12.1087C0.11164 11.2928 0 10.447 0 9.571C0 8.69506 0.11164 7.85346 0.334921 7.04621C0.56679 6.23897 0.888829 5.48325 1.30104 4.77905C1.71325 4.06627 2.21134 3.42219 2.7953 2.84682C3.37927 2.26285 4.02335 1.76476 4.72754 1.35255C5.43173 0.940343 6.18745 0.622597 6.9947 0.399316C7.81053 0.167448 8.65642 0.0515137 9.53237 0.0515137C10.6745 0.0515137 11.7738 0.249031 12.8301 0.644066C13.8863 1.03051 14.8439 1.58872 15.7027 2.31867L13.7704 5.53907C13.2122 4.97228 12.5681 4.53001 11.8382 4.21227C11.1082 3.88593 10.3396 3.72276 9.53237 3.72276C8.72513 3.72276 7.96511 3.87734 7.25233 4.1865C6.54814 4.49566 5.92982 4.91646 5.39738 5.4489C4.86494 5.97275 4.44415 6.59106 4.13499 7.30384C3.82583 8.00804 3.67125 8.76376 3.67125 9.571C3.67125 10.3868 3.82583 11.1511 4.13499 11.8639C4.44415 12.5767 4.86494 13.1993 5.39738 13.7318C5.92982 14.2642 6.54814 14.685 7.25233 14.9941C7.96511 15.3033 8.72513 15.4579 9.53237 15.4579C9.99611 15.4579 10.447 15.4021 10.8849 15.2904C11.3229 15.1788 11.7394 15.0242 12.1345 14.8267V9.571H15.7027V16.862Z" fill="#415D00"/>
</svg>
